<svg id="Capa_1" enable-background="new 0 0 512 512" height="512" viewBox="0 0 512 512" width="512" xmlns="http://www.w3.org/2000/svg"><g><path d="m512 316.781c0-22.53-9.337-43.577-25.265-58.573 14.034-14.81 22.235-34.699 22.235-55.487 0-39.582-28.72-72.584-66.412-79.267.242-2.544.364-5.103.364-7.673 0-44.388-36.112-80.5-80.501-80.5-12.401 0-24.547 2.871-35.521 8.272-13.748-25.637-40.646-42.3-70.9-42.3s-57.152 16.663-70.9 42.3c-10.975-5.401-23.12-8.272-35.521-8.272-44.389 0-80.501 36.112-80.501 80.5 0 2.57.122 5.129.364 7.673-37.692 6.683-66.412 39.685-66.412 79.267 0 20.788 8.201 40.678 22.235 55.487-15.928 14.996-25.265 36.043-25.265 58.573 0 39.225 28.203 71.987 65.394 79.079-.074 1.403-.111 2.809-.111 4.215 0 44.389 36.112 80.501 80.5 80.501 14.322 0 28.055-3.708 40.122-10.674 13.987 24.801 40.458 40.844 70.096 40.844s56.108-16.043 70.096-40.844c12.067 6.966 25.8 10.674 40.122 10.674 44.388 0 80.5-36.112 80.5-80.501 0-1.406-.037-2.812-.111-4.215 37.189-7.091 65.392-39.854 65.392-79.079zm-80.501 50.501c-.477 0-.949-.021-1.421-.037l-.316-.012c-4.764-.155-9.37 1.963-12.327 5.732-2.958 3.771-3.937 8.727-2.633 13.338 1.271 4.499 1.916 9.133 1.916 13.771 0 27.847-22.654 50.501-50.5 50.501-13.619 0-26.392-5.349-35.964-15.062-3.811-3.867-9.417-5.373-14.65-3.937-5.236 1.436-9.288 5.589-10.593 10.859-5.588 22.556-25.742 38.309-49.011 38.309s-43.423-15.753-49.011-38.309c-1.305-5.271-5.356-9.424-10.593-10.859-1.311-.359-2.644-.534-3.966-.534-3.962 0-7.827 1.571-10.685 4.471-9.572 9.713-22.345 15.062-35.964 15.062-27.846 0-50.5-22.654-50.5-50.501 0-4.639.645-9.272 1.916-13.771 1.304-4.611.325-9.567-2.633-13.338-2.958-3.77-7.52-5.892-12.327-5.732l-.316.012c-.472.017-.944.037-1.421.037-27.846 0-50.5-22.654-50.5-50.501 0-18.733 10.298-35.836 26.874-44.635 4.776-2.535 7.818-7.444 7.963-12.851.144-5.405-2.634-10.47-7.269-13.255-15.365-9.234-24.539-25.429-24.539-43.32 0-27.847 22.654-50.501 50.501-50.501.942 0 1.979.038 3.26.118 4.997.326 9.856-1.899 12.896-5.903 3.037-4.004 3.868-9.264 2.212-14.009-1.871-5.363-2.82-10.963-2.82-16.645 0-27.846 22.654-50.5 50.501-50.5 12.104 0 23.817 4.362 32.985 12.283 3.953 3.416 9.398 4.53 14.379 2.936 4.977-1.593 8.767-5.661 10.002-10.738 5.519-22.673 25.691-38.508 49.056-38.508s43.537 15.835 49.056 38.508c1.235 5.077 5.025 9.146 10.002 10.738 4.979 1.593 10.425.48 14.379-2.936 9.168-7.921 20.882-12.283 32.985-12.283 27.847 0 50.501 22.654 50.501 50.5 0 5.682-.949 11.281-2.82 16.645-1.656 4.745-.825 10.005 2.212 14.009 3.038 4.003 7.876 6.223 12.896 5.903 1.281-.08 2.317-.118 3.26-.118 27.847 0 50.501 22.654 50.501 50.501 0 17.892-9.174 34.086-24.539 43.32-4.635 2.785-7.412 7.85-7.269 13.255.145 5.406 3.187 10.315 7.963 12.851 16.574 8.799 26.872 25.902 26.872 44.635 0 27.847-22.654 50.501-50.501 50.501z"/><path d="m414.625 230.89-37.611-18.459c10.922-10.582 17.73-25.385 17.73-41.757 0-8.284-6.716-15-15-15s-15 6.716-15 15c0 15.535-12.64 28.175-28.176 28.175-7.931 0-15.272-3.212-20.674-9.043-3.473-3.749-8.616-5.468-13.644-4.574-5.03.899-9.257 4.297-11.216 9.017-5.899 14.215-19.651 23.4-35.035 23.4s-29.136-9.186-35.035-23.4c-1.959-4.72-6.186-8.117-11.216-9.017-5.032-.895-10.173.824-13.644 4.574-5.401 5.831-12.743 9.043-20.674 9.043-15.536 0-28.176-12.64-28.176-28.175 0-8.284-6.716-15-15-15s-15 6.716-15 15c0 16.372 6.808 31.176 17.73 41.757l-37.609 18.459c-7.438 3.65-10.507 12.638-6.857 20.074 2.606 5.312 7.935 8.395 13.477 8.395 2.219 0 4.473-.494 6.598-1.537l27.206-13.352v18.381c0 17.019 6.429 33.209 18.103 45.591l12.416 13.169c6.403 6.794 9.931 15.676 9.931 25.012 0 36.646 29.813 66.46 66.46 66.46h22.586c36.646 0 66.46-29.813 66.46-66.46 0-9.336 3.527-18.218 9.933-25.012l12.414-13.169c11.674-12.382 18.103-28.572 18.103-45.591v-18.381l27.206 13.352c2.126 1.043 4.379 1.537 6.598 1.537 5.541 0 10.87-3.083 13.477-8.395 3.646-7.437.576-16.424-6.861-20.074zm-80.354 56.972-12.414 13.169c-11.674 12.382-18.104 28.573-18.104 45.591 0 20.104-16.355 36.46-36.46 36.46h-22.586c-20.104 0-36.46-16.355-36.46-36.46 0-17.017-6.429-33.208-18.103-45.591l-12.416-13.17c-6.404-6.792-9.931-15.675-9.931-25.011v-34.519c2.5.329 5.045.517 7.634.517 9.61 0 19.012-2.409 27.365-6.861 12.666 15.988 32.075 25.661 53.203 25.661s40.537-9.673 53.203-25.661c8.354 4.452 17.755 6.861 27.365 6.861 2.589 0 5.133-.187 7.634-.517v34.519c.001 9.337-3.525 18.219-9.93 25.012z"/><path d="m226.5 260c-8.284 0-15 6.716-15 15v20c0 8.284 6.716 15 15 15s15-6.716 15-15v-20c0-8.284-6.716-15-15-15z"/><path d="m283.5 260c-8.284 0-15 6.716-15 15v20c0 8.284 6.716 15 15 15s15-6.716 15-15v-20c0-8.284-6.716-15-15-15z"/></g></svg>